<svg width="22" height="18" fill="none" xmlns="http://www.w3.org/2000/svg"><path d="M15.425 1.949v-.002c-.141-.58-.67-.998-1.27-.998h-6.31a1.29 1.29 0 00-1.267.991l-.241.815H3.311A2.464 2.464 0 00.85 5.215v9.375a2.464 2.464 0 002.461 2.46h15.377a2.464 2.464 0 002.462-2.46v0-9.374a2.464 2.464 0 00-2.461-2.461h-3.04l-.218-.778-.006-.028zm-.617 1.767l.03.109h3.85c.767 0 1.391.624 1.391 1.39v9.375c0 .767-.624 1.39-1.39 1.39H3.31c-.767 0-1.39-.623-1.39-1.39V5.215c0-.767.623-1.391 1.39-1.391H7.135l.032-.107.445-1.504h0l.003-.01a.233.233 0 01.229-.185h6.311c.109 0 .206.078.23.184h-.001l.002.008.422 1.505zm4.243 2.1v0a.861.861 0 10-1.722 0 .861.861 0 001.722 0zM5.961 9.683a5.045 5.045 0 005.04 5.04 5.044 5.044 0 005.038-5.04c0-2.778-2.26-5.039-5.039-5.039a5.045 5.045 0 00-5.04 5.04zm1.07 0a3.974 3.974 0 013.97-3.969 3.973 3.973 0 013.968 3.969A3.973 3.973 0 0111 13.651a3.973 3.973 0 01-3.969-3.968z" fill="#fff" stroke="#fff" stroke-width=".3"/></svg>