<svg width="13" height="16" fill="none" xmlns="http://www.w3.org/2000/svg"><path d="M12.1 8.06c0-.942-.642-1.733-1.5-1.927V4.759C10.6 2.625 8.755.9 6.5.9S2.4 2.626 2.4 4.76v1.373C1.542 6.327.9 7.118.9 8.06v5.066c0 1.085.852 1.974 1.907 1.974h7.386c1.055 0 1.907-.889 1.907-1.974V8.059zm-9-3.3c0-1.725 1.518-3.141 3.4-3.141s3.4 1.416 3.4 3.14v1.326H3.1V4.76zm8.3 8.366c0 .696-.545 1.256-1.207 1.256H2.807c-.662 0-1.207-.56-1.207-1.256V8.059c0-.695.545-1.255 1.207-1.255h7.386c.662 0 1.207.56 1.207 1.255v5.067z" fill="#fff" stroke="#fff" stroke-width=".2"/><path d="M6.5 8.16c-.61 0-1.1.513-1.1 1.136v1.556c0 .623.49 1.137 1.1 1.137.61 0 1.1-.514 1.1-1.137V9.296c0-.623-.49-1.137-1.1-1.137zm.4 2.692a.41.41 0 01-.4.418.41.41 0 01-.4-.418V9.296a.41.41 0 01.4-.418c.217 0 .4.184.4.418v1.556z" fill="#fff" stroke="#fff" stroke-width=".2"/></svg>