<svg width="62" height="80" fill="none" xmlns="http://www.w3.org/2000/svg"><path d="M11.227 47.074s17.032 12.412 3.949 32.18c0 0-8.99-19.576-5.502-30.297l1.553-1.883z" fill="#E48432"/><path d="M9.89 50.296S21.007 64.28 5.857 77.484c0 0-2.931-18.025 2.337-26l1.694-1.188z" fill="#E69E4F"/><path d="M7.119 38.586a7.095 7.095 0 100 14.19 7.095 7.095 0 000-14.19zm0 3.378c.993 0 1.926.386 2.628 1.089a3.694 3.694 0 011.09 2.629c0 .993-.387 1.926-1.09 2.629A3.693 3.693 0 017.12 49.4a3.693 3.693 0 01-2.63-1.09A3.694 3.694 0 013.4 45.683c0-.994.387-1.927 1.09-2.63a3.694 3.694 0 012.629-1.088z" fill="#84BF67"/><path d="M.002 26.499s23.204-9.676 37.003 15.569c0 0 8.006 17.092 13.864 19.54 0 0-14.568 5.98-24.828-5.188C15.782 45.252 23.99 39.502.002 26.5z" fill="#E57729"/><path d="M0 26.499s19.91-15.353 39.773 5.46c0 0 12.156 14.439 18.448 15.287 0 0-12.524 9.547-25.324 1.415C20.097 40.528 26.535 32.85 0 26.499z" fill="#E48432"/><path d="M0 26.5S15.26 6.516 39.833 21.48c0 0 15.478 10.8 21.776 9.99 0 0-9.626 12.464-24.095 7.922C23.043 34.849 27.276 25.767 0 26.499z" fill="#E59442"/><path d="M60.795 15.356c-5.873 2.411-23.62-4.014-23.62-4.014C9.567 3.248.001 26.499.001 26.499c26.156-7.767 24.418 2.102 39.57 2.744 15.152.643 21.224-13.887 21.224-13.887z" fill="#E69E4F"/><path d="M55.842 0C51.52 3.295 37.119 3.804 33.06 3.883c-.632.012-1.264-.01-1.894-.069C.226.923.003 26.498.003 26.498c23.255-14.272 24.13-4.29 38.932-7.59C53.737 15.606 55.842 0 55.842 0z" fill="#E5A858"/></svg>