<svg width="20" height="20" fill="none" xmlns="http://www.w3.org/2000/svg"><path d="M10.884 15.366a1.25 1.25 0 11-1.768 1.768 1.25 1.25 0 011.768-1.768zM10.884 2.866a1.25 1.25 0 11-1.768 1.768 1.25 1.25 0 011.768-1.768zM4.634 9.116a1.25 1.25 0 11-1.768 1.768 1.25 1.25 0 011.768-1.768zM5.58 13.168a1.25 1.25 0 110 2.499 1.25 1.25 0 010-2.5zM5.58 4.33a1.25 1.25 0 110 2.5 1.25 1.25 0 010-2.5z" fill="#fff"/><path d="M17.5 7.501a2.503 2.503 0 00-2.501 2.5c0 .69-.561 1.25-1.25 1.25-.69 0-1.25-.56-1.25-1.25V9.69c0-.391.186-.765.5-1l.36-.27A4.117 4.117 0 0015 5.138v-.127a5.02 5.02 0 00-5-5.012 9.975 9.975 0 00-7.722 3.643C.37 5.958-.39 9.005.191 12.002c.76 3.91 3.897 7.047 7.807 7.806.66.13 1.323.192 1.98.192A9.998 9.998 0 0020 10.002c0-1.38-1.122-2.5-2.5-2.5zm-1.939 9.257c-2.025 1.67-4.693 2.334-7.325 1.823-3.414-.663-6.155-3.403-6.818-6.817-.51-2.63.154-5.3 1.824-7.325A8.73 8.73 0 019.996 1.25a3.768 3.768 0 013.753 3.762v.127c0 .892-.426 1.744-1.14 2.28l-.36.27c-.627.47-1 1.217-1 2v.313c0 1.378 1.12 2.5 2.5 2.5 1.379 0 2.5-1.122 2.5-2.5 0-.69.561-1.25 1.25-1.25.69 0 1.25.56 1.25 1.25a8.73 8.73 0 01-3.188 6.756z" fill="#fff"/></svg>