<svg width="20" height="18" fill="none" xmlns="http://www.w3.org/2000/svg"><path d="M16.266 4.701a5.581 5.581 0 00-1.806-3.223A5.865 5.865 0 0010.553 0a5.89 5.89 0 00-3.142.901 5.683 5.683 0 00-1.88 1.926 3.406 3.406 0 00-.608-.056c-1.748 0-3.171 1.386-3.171 3.088 0 .22.025.432.066.64C.687 7.3 0 8.59 0 9.963c0 1.11.424 2.187 1.197 3.04.794.872 1.842 1.389 2.96 1.45H7.729c.308 0 .555-.241.555-.541 0-.3-.247-.541-.555-.541h-3.52c-1.683-.1-3.098-1.658-3.098-3.412 0-1.133.626-2.19 1.633-2.763a.538.538 0 00.243-.657 1.916 1.916 0 01-.124-.688c0-1.106.926-2.007 2.06-2.007.244 0 .482.04.704.12a.564.564 0 00.695-.276c.77-1.59 2.43-2.615 4.236-2.615 2.427 0 4.43 1.77 4.66 4.117.025.244.214.44.46.48 1.83.305 3.213 1.95 3.213 3.829 0 1.99-1.608 3.72-3.59 3.868h-3.032a.546.546 0 00-.555.54c0 .3.247.541.555.541h3.092a4.971 4.971 0 003.3-1.586A4.915 4.915 0 0020 9.5c-.004-2.247-1.58-4.245-3.734-4.798z" fill="#fff"/><path d="M13.333 10.476a.53.53 0 000-.765l-2.94-2.863a.57.57 0 00-.39-.16.552.552 0 00-.392.16L6.671 9.71a.53.53 0 000 .765c.107.104.25.16.39.16a.55.55 0 00.391-.16l1.995-1.943v8.926c0 .3.247.541.555.541.308 0 .555-.24.555-.54V8.532l1.995 1.943a.56.56 0 00.781 0z" fill="#fff"/></svg>